# This file uses centimeters as units for non-parametric coordinates.

mtllib pine_tree.mtl
g default
v 2.729105 3.405421 -1.829962
v -0.928320 3.405421 -3.138309
v 0.000000 10.013950 0.032872
v -0.612217 5.237784 -0.510972
v 0.233846 5.237784 -0.785874
v 0.000000 6.751267 -0.066170
v -3.302839 3.405421 -0.064192
v -1.112946 3.405421 3.144063
v -3.325357 1.023446 2.448885
v 1.270173 1.023446 3.942063
v 0.000000 9.244179 0.032872
v 0.865838 5.237784 -2.463609
v -2.106736 5.237784 -1.562045
v 0.000000 10.522515 0.032872
v -0.612217 5.237784 0.378631
v -2.167873 5.237784 1.543640
v 0.756741 5.237784 -0.066170
v 3.162341 1.004633 2.427848
v 3.254975 1.004633 -2.234605
v -0.000000 8.938437 0.032872
v 0.233846 5.237784 0.653533
v -1.300541 1.004633 3.780525
v 4.110367 1.003667 0.032872
v -0.382851 7.078239 -1.557022
v -1.701185 7.078239 -0.007663
v 0.000000 11.005094 0.032872
v 2.641853 5.237784 0.084878
v 2.615000 3.405421 2.052758
v 0.766917 5.237784 2.561494
v 1.464570 7.078239 -0.909202
v -0.668539 7.078239 1.597713
v 1.288005 7.078239 1.040532
v 1.270174 1.003667 -3.876320
v 0.516962 3.405421 1.524874
v 1.672923 3.405421 -0.066170
v 0.516962 3.405421 -1.657215
v -3.966120 1.004633 -0.045928
v -1.150655 1.004633 -3.763483
v -3.325357 1.023446 -2.383142
v 0.887904 1.004632 2.666517
v 2.873317 1.004632 -0.066170
v 0.887904 1.004632 -2.798858
v -1.353423 3.405421 -1.049490
v -1.353423 3.405421 0.917150
v -2.324563 1.004632 -1.755064
v -2.324563 1.004632 1.622723
vt 0.650000 0.500000
vt 0.750000 0.500000
vt 0.500000 1.000000
vt 0.472384 0.907947
vt 0.453974 0.907947
vt 0.500000 1.000000
vt 0.350000 0.500000
vt 0.450000 0.500000
vt 0.450000 0.500000
vt 0.550000 0.500000
vt 0.500000 1.000000
vt 0.650000 0.500000
vt 0.750000 0.500000
vt 0.500000 1.000000
vt 0.490795 0.907947
vt 0.250000 0.500000
vt 0.350000 0.500000
vt 0.546026 0.907947
vt 0.527616 0.907947
vt 0.550000 0.500000
vt 0.650000 0.500000
vt 0.500000 1.000000
vt 0.509205 0.907947
vt 0.450000 0.500000
vt 0.650000 0.500000
vt 0.250000 0.500000
vt 0.350000 0.500000
vt 0.500000 1.000000
vt 0.550000 0.500000
vt 0.550000 0.500000
vt 0.450000 0.500000
vt 0.650000 0.500000
vt 0.750000 0.500000
vt 0.450000 0.500000
vt 0.550000 0.500000
vt 0.577254 0.012236
vt 0.750000 0.250000
vt 0.577254 0.487764
vt 0.297746 0.396946
vt 0.297746 0.103054
vt 0.451770 0.290145
vt 0.532314 0.314574
vt 0.580436 0.245520
vt 0.750000 0.250000
vt 0.577254 0.487764
vt 0.297746 0.396946
vt 0.297746 0.103054
vt 0.750000 0.500000
vt 0.468664 0.365286
vt 0.608766 0.315168
vt 0.604395 0.166437
vt 0.577254 0.012236
vt 0.750000 0.250000
vt 0.577254 0.487764
vt 0.297746 0.396946
vt 0.577254 0.012236
vt 0.529633 0.178414
vt 0.450113 0.205994
vt 0.350000 0.500000
vt 0.250000 0.500000
vt 0.750000 0.500000
vt 0.350000 0.500000
vt 0.250000 0.500000
vt 0.250000 0.500000
vt 0.554004 0.410183
vt 0.674760 0.243976
vt 0.554004 0.077769
vt 0.577254 0.012236
vt 0.750000 0.250000
vt 0.577254 0.487764
vt 0.297746 0.396946
vt 0.461592 0.124634
vt 0.377706 0.247529
vt 0.297746 0.103054
vt 0.451043 0.418174
vt 0.652150 0.348384
vt 0.647922 0.135553
vt 0.577254 0.012236
vt 0.750000 0.250000
vt 0.577254 0.487764
vt 0.297746 0.396946
vt 0.444201 0.073806
vt 0.322523 0.248475
vt 0.297746 0.103054
vt 0.358617 0.141255
vt 0.358616 0.346697
vt 0.297746 0.103054
vn 0.312243 0.374991 -0.872861
vn 0.312243 0.374991 -0.872861
vn 0.312243 0.374991 -0.872861
vn 0.286467 -0.374991 0.881657
vn 0.286467 -0.374991 0.881657
vn 0.286467 -0.374991 0.881657
vn -0.765665 0.374991 0.522628
vn -0.765665 0.374991 0.522628
vn -0.765665 0.374991 0.522628
vn -0.286468 0.374991 0.881657
vn -0.286468 0.374991 0.881657
vn -0.286468 0.374991 0.881656
vn -0.269060 0.374991 -0.887124
vn -0.269060 0.374991 -0.887124
vn -0.269060 0.374991 -0.887124
vn 0.927028 -0.374991 0.000000
vn 0.927029 -0.374991 0.000000
vn 0.927029 -0.374991 0.000000
vn -0.926849 0.374991 -0.018246
vn -0.926849 0.374991 -0.018246
vn -0.926849 0.374991 -0.018246
vn -0.749982 -0.374991 0.544894
vn -0.749982 -0.374991 0.544894
vn -0.749982 -0.374991 0.544894
vn 0.926846 0.374991 0.018415
vn 0.926846 0.374991 0.018415
vn 0.926846 0.374991 0.018415
vn 0.286468 -0.374991 -0.881657
vn 0.286468 -0.374991 -0.881657
vn 0.286468 -0.374991 -0.881656
vn -0.749982 -0.374991 -0.544893
vn -0.749982 -0.374991 -0.544893
vn -0.749982 -0.374991 -0.544893
vn 0.268898 0.374991 0.887173
vn 0.268898 0.374991 0.887173
vn 0.268898 0.374991 0.887173
vn 0.751009 0.374603 0.543745
vn 0.751009 0.374603 0.543745
vn 0.751009 0.374603 0.543745
vn -0.721805 0.319039 -0.614176
vn -0.721805 0.319039 -0.614176
vn -0.721805 0.319039 -0.614176
vn 0.760561 0.374991 -0.530027
vn 0.760561 0.374991 -0.530027
vn 0.760561 0.374991 -0.530027
vn 0.926629 0.374991 0.027232
vn 0.926629 0.374991 0.027232
vn 0.926629 0.374991 0.027232
vn 0.260445 0.374991 0.889691
vn 0.260445 0.374991 0.889691
vn 0.260445 0.374991 0.889691
vn -0.303765 0.374991 0.875848
vn -0.303765 0.374991 0.875848
vn -0.303765 0.374991 0.875848
vn 0.312349 0.330187 -0.890738
vn 0.312349 0.330187 -0.890738
vn 0.312349 0.330187 -0.890738
vn -0.791626 0.337691 0.509208
vn -0.791626 0.337691 0.509208
vn -0.791626 0.337691 0.509208
vn 0.739112 0.374991 0.559549
vn 0.739112 0.374991 0.559549
vn 0.739112 0.374991 0.559549
vn 0.940069 0.330187 0.085131
vn 0.940069 0.330187 0.085131
vn 0.940069 0.330187 0.085131
vn 0.259576 0.319039 0.911501
vn 0.259576 0.319039 0.911501
vn 0.259576 0.319039 0.911501
vn 0.000000 -1.000000 0.000000
vn 0.000000 -1.000000 0.000000
vn 0.000000 -1.000000 0.000000
vn 0.000000 -1.000000 0.000000
vn 0.000000 -1.000000 0.000000
vn 0.000000 -1.000000 -0.000000
vn 0.000000 -1.000000 -0.000000
vn 0.000000 -1.000000 0.000000
vn 0.000000 -1.000000 -0.000000
vn 0.000000 -1.000000 -0.000000
vn 0.000000 -1.000000 -0.000000
vn 0.000000 -1.000000 0.000000
vn 0.750235 0.374217 -0.545077
vn 0.750235 0.374217 -0.545077
vn 0.750235 0.374217 -0.545077
vn 0.000000 -1.000000 0.000000
vn 0.000000 -1.000000 0.000000
vn 0.000000 -1.000000 0.000000
vn 0.000000 -1.000000 -0.000000
vn 0.000000 -1.000000 0.000000
vn 0.000000 -1.000000 0.000000
vn 0.000000 -1.000000 -0.000000
vn 0.000000 -1.000000 0.000000
vn 0.000000 -1.000000 0.000000
vn 0.000000 -1.000000 0.000000
vn -0.760658 0.374991 0.529888
vn -0.760658 0.374991 0.529888
vn -0.760658 0.374991 0.529888
vn -0.733652 0.374991 -0.566689
vn -0.733652 0.374991 -0.566689
vn -0.733652 0.374991 -0.566689
vn 0.303925 0.374991 -0.875792
vn 0.303925 0.374991 -0.875792
vn 0.303925 0.374991 -0.875792
vn -0.927028 0.374991 0.000000
vn -0.927028 0.374991 0.000000
vn -0.927028 0.374991 0.000000
vn -0.285057 0.374603 -0.882278
vn -0.285057 0.374603 -0.882278
vn -0.285057 0.374603 -0.882278
vn -0.739010 0.374991 -0.559684
vn -0.739010 0.374991 -0.559684
vn -0.739010 0.374991 -0.559684
vn -0.000620 -0.999981 0.006218
vn 0.000514 -0.999976 0.006914
vn -0.004997 -0.999981 0.003537
vn -0.004764 -0.999982 0.003680
vn 0.000514 -0.999976 0.006914
vn 0.000514 -0.999976 0.006914
vn -0.009258 -0.999957 0.000926
vn 0.000000 -1.000000 -0.000000
vn 0.000000 -1.000000 -0.000000
vn 0.000000 -1.000000 -0.000000
vn 0.000000 -1.000000 -0.000000
vn 0.000000 -1.000000 -0.000000
vn 0.000000 -1.000000 -0.000000
vn -0.000000 -1.000000 0.000000
vn 0.000000 -1.000000 -0.000000
vn 0.000000 -1.000000 -0.000000
vn -0.000000 -1.000000 0.000000
vn -0.000000 -1.000000 0.000000
vn -0.000000 -1.000000 0.000000
vn -0.000000 -1.000000 0.000000
vn -0.011033 -0.999939 -0.000162
vn -0.011033 -0.999939 -0.000162
vn -0.011033 -0.999939 -0.000162
s off
g pCone8
usemtl lambert2SG
f 1/1/1 2/2/2 3/3/3
f 4/4/4 5/5/5 6/6/6
f 7/7/7 8/8/8 3/3/9
f 9/9/10 10/10/11 11/11/12
f 12/12/13 13/13/14 14/14/15
f 15/15/16 4/4/17 6/6/18
f 13/16/19 16/17/20 14/14/21
f 5/18/22 17/19/23 6/6/24
f 18/20/25 19/21/26 20/22/27
f 21/23/28 15/15/29 6/6/30
f 17/19/31 21/23/32 6/6/33
f 22/24/34 18/20/35 20/22/36
f 10/10/37 23/25/38 11/11/39
f 24/26/40 25/27/41 26/28/42
f 27/29/43 12/12/44 14/14/45
f 28/30/46 1/1/47 3/3/48
f 8/8/49 28/30/50 3/3/51
f 16/17/52 29/31/53 14/14/54
f 30/32/55 24/33/56 26/28/57
f 25/27/58 31/34/59 26/28/60
f 29/31/61 27/29/62 14/14/63
f 32/35/64 30/32/65 26/28/66
f 31/34/67 32/35/68 26/28/69
f 24/36/70 30/37/71 32/38/72 31/39/73 25/40/74
s 1
f 21/41/75 17/42/76 5/43/77 12/44/78 27/45/79 29/46/80 16/47/81
s off
f 23/25/82 33/48/83 11/11/84
s 2
f 34/49/85 35/50/86 36/51/87 2/52/88 1/53/89 28/54/90 8/55/91
s 1
f 13/56/92 12/44/78 5/43/77 4/57/93 15/58/94 21/41/75 16/47/81
s off
f 37/59/95 22/24/96 20/22/97
f 2/60/98 7/7/99 3/3/100
f 19/21/101 38/61/102 20/22/103
f 39/62/104 9/9/105 11/11/106
f 33/63/107 39/62/108 11/11/109
f 38/64/110 37/59/111 20/22/112
s 3
f 40/65/113 41/66/114 42/67/115 33/68/116 23/69/117 10/70/118 9/71/119
s 2
f 2/52/88 36/51/87 43/72/120 44/73/121 34/49/85 8/55/91 7/74/122
s 4
f 40/75/123 41/76/124 42/77/125 38/78/126 19/79/127 18/80/128 22/81/129
f 38/78/126 42/77/125 45/82/130 46/83/131 40/75/123 22/81/129 37/84/132
s 3
f 33/68/116 42/67/115 45/85/133 46/86/134 40/65/113 9/71/119 39/87/135
g default
v 0.290159 0.015488 -0.528920
v -0.290159 0.016316 -0.529264
v -0.570383 0.016423 -0.000000
v -0.290159 0.016316 0.529264
v 0.290159 0.015487 0.528920
v 0.580319 0.015619 0.000000
v 0.290159 1.047738 -0.401005
v -0.290159 1.047738 -0.401006
v -0.580319 1.047738 0.101565
v -0.290159 1.047738 0.604136
v 0.290159 1.047738 0.604136
v 0.580319 1.047738 0.101565
v 0.290159 2.079857 -0.550838
v -0.290159 2.079857 -0.550838
v -0.580319 2.079857 -0.048268
v -0.290159 2.079857 0.454303
v 0.290159 2.079857 0.454303
v 0.580319 2.079857 -0.048267
v 0.290159 3.111976 -0.431776
v -0.290159 3.111976 -0.431776
v -0.580319 3.111976 0.070794
v -0.290159 3.111976 0.573365
v 0.290159 3.111976 0.573365
v 0.580319 3.111976 0.070795
v 0.290159 4.144095 -0.570054
v -0.290159 4.144095 -0.570054
v -0.580319 4.144095 -0.067484
v -0.290159 4.144095 0.435087
v 0.290159 4.144095 0.435087
v 0.580319 4.144095 -0.067484
v 0.290159 5.176214 -0.528794
v -0.290159 5.176214 -0.528794
v -0.580319 5.176214 -0.026223
v -0.290159 5.176214 0.476347
v 0.290159 5.176214 0.476347
v 0.580319 5.176214 -0.026223
vt 0.375000 0.375157
vt 0.416667 0.375157
vt 0.458333 0.375157
vt 0.500000 0.375157
vt 0.541667 0.375157
vt 0.583333 0.375157
vt 0.625000 0.375157
vt 0.375000 0.437813
vt 0.416667 0.437813
vt 0.458333 0.437813
vt 0.500000 0.437813
vt 0.541667 0.437813
vt 0.583333 0.437813
vt 0.625000 0.437813
vt 0.375000 0.500470
vt 0.416667 0.500470
vt 0.458333 0.500470
vt 0.500000 0.500470
vt 0.541667 0.500470
vt 0.583333 0.500470
vt 0.625000 0.500470
vt 0.375000 0.563127
vt 0.416667 0.563127
vt 0.458333 0.563127
vt 0.500000 0.563127
vt 0.541667 0.563127
vt 0.583333 0.563127
vt 0.625000 0.563127
vt 0.375000 0.625783
vt 0.416667 0.625783
vt 0.458333 0.625783
vt 0.500000 0.625783
vt 0.541667 0.625783
vt 0.583333 0.625783
vt 0.625000 0.625783
vt 0.375000 0.688440
vt 0.416667 0.688440
vt 0.458333 0.688440
vt 0.500000 0.688440
vt 0.541667 0.688440
vt 0.583333 0.688440
vt 0.625000 0.688440
vt 0.578125 0.708434
vt 0.421875 0.708434
vt 0.343750 0.843750
vt 0.421875 0.979066
vt 0.578125 0.979066
vt 0.656250 0.843750
vn 0.000382 0.123189 -0.992383
vn 0.000382 0.123189 -0.992383
vn 0.000193 -0.010536 -0.999944
vn 0.000193 -0.010536 -0.999944
vn -0.874104 0.049626 -0.483197
vn -0.874104 0.049626 -0.483197
vn -0.870907 -0.007575 -0.491390
vn -0.870549 -0.011861 -0.491938
vn -0.874278 -0.045549 0.483284
vn -0.874278 -0.045549 0.483283
vn -0.871144 0.006773 0.490980
vn -0.870384 0.015501 0.492130
vn 0.000243 -0.072537 0.997366
vn 0.000243 -0.072537 0.997366
vn 0.000122 0.036212 0.999344
vn 0.000122 0.036212 0.999344
vn 0.870773 -0.041952 0.489893
vn 0.870773 -0.041952 0.489893
vn 0.868604 0.016749 0.495223
vn 0.869082 0.008675 0.494592
vn 0.870243 0.054426 -0.489607
vn 0.870243 0.054426 -0.489607
vn 0.868743 -0.009340 -0.495176
vn 0.868997 -0.004181 -0.494800
vn 0.000000 -0.014905 -0.999889
vn 0.000000 -0.014905 -0.999889
vn -0.865992 -0.008824 -0.499981
vn -0.866016 -0.004745 -0.499994
vn -0.865992 0.008824 0.499980
vn -0.866016 0.004745 0.499994
vn 0.000000 0.014905 0.999889
vn 0.000000 0.014905 0.999889
vn 0.866016 0.004745 0.499994
vn 0.865992 0.008824 0.499981
vn 0.866016 -0.004745 -0.499994
vn 0.865992 -0.008824 -0.499980
vn 0.000000 -0.009309 -0.999957
vn 0.000000 -0.009309 -0.999957
vn -0.866021 -0.003008 -0.499998
vn -0.866012 -0.005507 -0.499992
vn -0.866022 0.003008 0.499998
vn -0.866012 0.005507 0.499992
vn 0.000000 0.009309 0.999957
vn 0.000000 0.009309 0.999957
vn 0.866012 0.005507 0.499992
vn 0.866022 0.003008 0.499998
vn 0.866012 -0.005507 -0.499992
vn 0.866022 -0.003008 -0.499998
vn 0.000000 -0.046947 -0.998897
vn 0.000000 -0.046947 -0.998897
vn -0.865700 -0.027398 -0.499812
vn -0.865896 -0.017308 -0.499925
vn -0.865700 0.027398 0.499812
vn -0.865896 0.017308 0.499925
vn 0.000000 0.046947 0.998897
vn 0.000000 0.046947 0.998897
vn 0.865896 0.017308 0.499925
vn 0.865700 0.027398 0.499812
vn 0.865896 -0.017308 -0.499925
vn 0.865700 -0.027398 -0.499812
vn 0.000000 0.039944 -0.999202
vn 0.000000 0.039944 -0.999202
vn -0.865852 0.019984 -0.499900
vn -0.865852 0.019984 -0.499900
vn -0.865853 -0.019984 0.499900
vn -0.865853 -0.019984 0.499900
vn 0.000000 -0.039944 0.999202
vn 0.000000 -0.039944 0.999202
vn 0.865852 -0.019984 0.499900
vn 0.865852 -0.019984 0.499900
vn 0.865853 0.019984 -0.499900
vn 0.865853 0.019984 -0.499900
vn 0.000000 1.000000 -0.000000
vn 0.000000 1.000000 -0.000000
vn 0.000000 1.000000 -0.000000
vn 0.000000 1.000000 -0.000000
vn 0.000000 1.000000 -0.000000
vn 0.000000 1.000000 -0.000000
vn -0.000943 -1.000000 -0.000000
vn -0.000943 -1.000000 -0.000000
vn -0.000943 -1.000000 -0.000000
vn -0.000943 -1.000000 -0.000000
vn -0.000943 -1.000000 -0.000000
vn -0.000943 -1.000000 -0.000000
s 1
g pCylinder1
usemtl lambert3SG
f 47/88/136 48/89/137 54/96/138 53/95/139
s 2
f 48/89/140 49/90/141 55/97/142 54/96/143
s 3
f 49/90/144 50/91/145 56/98/146 55/97/147
s 4
f 50/91/148 51/92/149 57/99/150 56/98/151
s 5
f 51/92/152 52/93/153 58/100/154 57/99/155
s 6
f 52/93/156 47/94/157 53/101/158 58/100/159
s 1
f 53/95/139 54/96/138 60/103/160 59/102/161
s 2
f 54/96/143 55/97/142 61/104/162 60/103/163
s 3
f 55/97/147 56/98/146 62/105/164 61/104/165
s 4
f 56/98/151 57/99/150 63/106/166 62/105/167
s 5
f 57/99/155 58/100/154 64/107/168 63/106/169
s 6
f 58/100/159 53/101/158 59/108/170 64/107/171
s 1
f 59/102/161 60/103/160 66/110/172 65/109/173
s 2
f 60/103/163 61/104/162 67/111/174 66/110/175
s 3
f 61/104/165 62/105/164 68/112/176 67/111/177
s 4
f 62/105/167 63/106/166 69/113/178 68/112/179
s 5
f 63/106/169 64/107/168 70/114/180 69/113/181
s 6
f 64/107/171 59/108/170 65/115/182 70/114/183
s 1
f 65/109/173 66/110/172 72/117/184 71/116/185
s 2
f 66/110/175 67/111/174 73/118/186 72/117/187
s 3
f 67/111/177 68/112/176 74/119/188 73/118/189
s 4
f 68/112/179 69/113/178 75/120/190 74/119/191
s 5
f 69/113/181 70/114/180 76/121/192 75/120/193
s 6
f 70/114/183 65/115/182 71/122/194 76/121/195
s 1
f 71/116/185 72/117/184 78/124/196 77/123/197
s 2
f 72/117/187 73/118/186 79/125/198 78/124/199
s 3
f 73/118/189 74/119/188 80/126/200 79/125/201
s 4
f 74/119/191 75/120/190 81/127/202 80/126/203
s 5
f 75/120/193 76/121/192 82/128/204 81/127/205
s 6
f 76/121/195 71/122/194 77/129/206 82/128/207
s off
f 77/134/208 78/133/209 79/132/210 80/131/211 81/130/212 82/135/213
f 48/89/214 47/94/215 52/93/216 51/92/217 50/91/218 49/90/219
